<svg width="26" height="31" viewBox="0 0 26 31" fill="none" xmlns="http://www.w3.org/2000/svg">
<path d="M21.403 16.3858C21.433 14.0547 22.6829 11.8489 24.6659 10.6279C23.4149 8.83854 21.3197 7.70403 19.1398 7.63572C16.8147 7.39129 14.5607 9.02918 13.3759 9.02918C12.1682 9.02918 10.344 7.65999 8.37963 7.70047C5.81919 7.78332 3.43221 9.24133 2.18651 11.4834C-0.491274 16.1268 1.50611 22.9511 4.0712 26.7045C5.35457 28.5424 6.85446 30.5955 8.81703 30.5227C10.7375 30.4429 11.4548 29.2961 13.773 29.2961C16.0697 29.2961 16.7426 30.5227 18.745 30.4764C20.8058 30.4429 22.1042 28.6303 23.3426 26.7749C24.2647 25.4653 24.9742 24.0179 25.4449 22.4864C23.0231 21.4605 21.4058 19.0194 21.403 16.3858Z" fill="#282224"/>
<path d="M17.6208 5.1673C18.7444 3.81631 19.298 2.07984 19.1639 0.32666C17.4473 0.507244 15.8616 1.32898 14.7228 2.62813C13.6092 3.89748 13.0297 5.60339 13.1392 7.28956C14.8565 7.30727 16.5447 6.50781 17.6208 5.1673Z" fill="#282224"/>
</svg>
