<svg width="30" height="33" viewBox="0 0 30 33" fill="none" xmlns="http://www.w3.org/2000/svg">
<g filter="url(#filter0_ii_139_1485)">
<path d="M1.14163 1.35613C0.775187 1.74108 0.558593 2.3385 0.558593 3.11214V30.7534C0.558593 31.5283 0.775187 32.1245 1.14163 32.5094L1.23482 32.5994L16.8358 17.1153V16.9328V16.7503L1.23482 1.26489L1.14163 1.35613Z" fill="url(#paint0_linear_139_1485)"/>
<path d="M22.0353 22.2784L16.8358 17.1154V16.9329V16.7504L22.0366 11.5886L22.1537 11.6549L28.3152 15.1294C30.0744 16.1218 30.0744 17.7453 28.3152 18.7389L22.1537 22.2134L22.0353 22.2784Z" fill="url(#paint1_linear_139_1485)"/>
<g filter="url(#filter1_i_139_1485)">
<path d="M22.1536 22.2121L16.8345 16.9329L1.1416 32.5095C1.72086 33.1194 2.67916 33.1944 3.75834 32.587L22.1536 22.2121Z" fill="url(#paint2_linear_139_1485)"/>
</g>
<path d="M22.1536 11.6535L3.75834 1.2799C2.67916 0.671233 1.72086 0.747473 1.1416 1.35739L16.8357 16.934L22.1536 11.6535Z" fill="url(#paint3_linear_139_1485)"/>
</g>
<defs>
<filter id="filter0_ii_139_1485" x="0.558594" y="0.859863" width="29.076" height="32.1467" filterUnits="userSpaceOnUse" color-interpolation-filters="sRGB">
<feFlood flood-opacity="0" result="BackgroundImageFix"/>
<feBlend mode="normal" in="SourceGraphic" in2="BackgroundImageFix" result="shape"/>
<feColorMatrix in="SourceAlpha" type="matrix" values="0 0 0 0 0 0 0 0 0 0 0 0 0 0 0 0 0 0 127 0" result="hardAlpha"/>
<feOffset dy="-0.15"/>
<feComposite in2="hardAlpha" operator="arithmetic" k2="-1" k3="1"/>
<feColorMatrix type="matrix" values="0 0 0 0 0 0 0 0 0 0 0 0 0 0 0 0 0 0 0.12 0"/>
<feBlend mode="normal" in2="shape" result="effect1_innerShadow_139_1485"/>
<feColorMatrix in="SourceAlpha" type="matrix" values="0 0 0 0 0 0 0 0 0 0 0 0 0 0 0 0 0 0 127 0" result="hardAlpha"/>
<feOffset dy="0.15"/>
<feComposite in2="hardAlpha" operator="arithmetic" k2="-1" k3="1"/>
<feColorMatrix type="matrix" values="0 0 0 0 1 0 0 0 0 1 0 0 0 0 1 0 0 0 0.25 0"/>
<feBlend mode="normal" in2="effect1_innerShadow_139_1485" result="effect2_innerShadow_139_1485"/>
</filter>
<filter id="filter1_i_139_1485" x="1.1416" y="16.9329" width="21.012" height="16.0737" filterUnits="userSpaceOnUse" color-interpolation-filters="sRGB">
<feFlood flood-opacity="0" result="BackgroundImageFix"/>
<feBlend mode="normal" in="SourceGraphic" in2="BackgroundImageFix" result="shape"/>
<feColorMatrix in="SourceAlpha" type="matrix" values="0 0 0 0 0 0 0 0 0 0 0 0 0 0 0 0 0 0 127 0" result="hardAlpha"/>
<feOffset dy="-0.15"/>
<feComposite in2="hardAlpha" operator="arithmetic" k2="-1" k3="1"/>
<feColorMatrix type="matrix" values="0 0 0 0 0 0 0 0 0 0 0 0 0 0 0 0 0 0 0.08 0"/>
<feBlend mode="normal" in2="shape" result="effect1_innerShadow_139_1485"/>
</filter>
<linearGradient id="paint0_linear_139_1485" x1="15.4529" y1="2.81968" x2="-5.52122" y2="23.952" gradientUnits="userSpaceOnUse">
<stop stop-color="#00A0FF"/>
<stop offset="0.0066" stop-color="#00A1FF"/>
<stop offset="0.2601" stop-color="#00BEFF"/>
<stop offset="0.5122" stop-color="#00D2FF"/>
<stop offset="0.7604" stop-color="#00DFFF"/>
<stop offset="1" stop-color="#00E3FF"/>
</linearGradient>
<linearGradient id="paint1_linear_139_1485" x1="30.6052" y1="16.9329" x2="0.136273" y2="16.9329" gradientUnits="userSpaceOnUse">
<stop stop-color="#FFE000"/>
<stop offset="0.4087" stop-color="#FFBD00"/>
<stop offset="0.7754" stop-color="#FFA500"/>
<stop offset="1" stop-color="#FF9C00"/>
</linearGradient>
<linearGradient id="paint2_linear_139_1485" x1="19.265" y1="19.7999" x2="-9.1785" y2="48.4579" gradientUnits="userSpaceOnUse">
<stop stop-color="#FF3A44"/>
<stop offset="1" stop-color="#C31162"/>
</linearGradient>
<linearGradient id="paint3_linear_139_1485" x1="-2.81071" y1="-7.84412" x2="9.8901" y2="4.95249" gradientUnits="userSpaceOnUse">
<stop stop-color="#32A071"/>
<stop offset="0.0685" stop-color="#2DA771"/>
<stop offset="0.4762" stop-color="#15CF74"/>
<stop offset="0.8009" stop-color="#06E775"/>
<stop offset="1" stop-color="#00F076"/>
</linearGradient>
</defs>
</svg>
